<svg width="68" height="100" viewBox="0 0 68 100" fill="none" xmlns="http://www.w3.org/2000/svg">
<path d="M21.7112 2.52592L21.7112 2.52575C21.8407 2.08515 22.1095 1.69836 22.4773 1.4233C22.845 1.14824 23.292 0.999731 23.7512 1H23.7518H48.7514C49.0878 1.0003 49.4193 1.08048 49.7187 1.23394C50.0182 1.38744 50.277 1.60988 50.4737 1.88294C50.6704 2.156 50.7994 2.47187 50.8502 2.80455C50.9009 3.13719 50.8719 3.47712 50.7656 3.79638C50.7656 3.79642 50.7656 3.79646 50.7656 3.7965L39.6406 37.1839L39.2021 38.5H40.5893H64.3768H64.3775C64.7755 38.4997 65.1655 38.6112 65.5032 38.8217C65.8409 39.0322 66.1127 39.3334 66.2876 39.6908C66.4626 40.0482 66.5336 40.4476 66.4927 40.8434C66.4518 41.2393 66.3006 41.6157 66.0563 41.9298L66.0562 41.9298L22.3062 98.1798L22.3048 98.1817C22 98.5754 21.5667 98.8496 21.0804 98.9565C20.5941 99.0633 20.0857 98.996 19.6439 98.7663C19.2022 98.5365 18.8552 98.159 18.6634 97.6995C18.4716 97.24 18.4472 96.7278 18.5945 96.2522L18.5951 96.2504L29.8514 59.6691L30.2496 58.375H28.8956H8.12683H8.12624C7.79587 58.3752 7.47 58.2984 7.17451 58.1506C6.87902 58.0028 6.62207 57.7882 6.42405 57.5237C6.22602 57.2593 6.09238 56.9523 6.03374 56.6272C5.97511 56.3021 5.99307 55.9678 6.0862 55.6509C6.08621 55.6509 6.08623 55.6508 6.08624 55.6508L21.7112 2.52592Z" stroke="white" stroke-width="2"/>
<path d="M15.7518 2.24375C15.9423 1.5958 16.3375 1.02699 16.8783 0.6225C17.4192 0.218008 18.0765 -0.000394915 18.7518 5.36073e-07H43.7518C44.2467 0.00037621 44.7345 0.118287 45.1749 0.344028C45.6153 0.569768 45.9958 0.896881 46.2851 1.29844C46.5743 1.7 46.7641 2.16451 46.8387 2.65375C46.9134 3.14299 46.8707 3.64296 46.7143 4.1125L35.5893 37.5H59.3768C59.962 37.4996 60.5356 37.6635 61.0322 37.9731C61.5288 38.2827 61.9285 38.7255 62.1858 39.2512C62.4431 39.7768 62.5476 40.3641 62.4874 40.9462C62.4273 41.5283 62.2049 42.0818 61.8456 42.5438L18.0956 98.7938C17.6474 99.3728 17.0101 99.776 16.295 99.9332C15.5798 100.09 14.8322 99.9913 14.1826 99.6535C13.5329 99.3156 13.0226 98.7604 12.7405 98.0847C12.4585 97.409 12.4227 96.6557 12.6393 95.9563L23.8956 59.375H3.12683C2.64098 59.3753 2.16176 59.2623 1.72723 59.045C1.29269 58.8277 0.914812 58.512 0.623596 58.1231C0.33238 57.7342 0.135851 57.2828 0.049618 56.8047C-0.0366154 56.3265 -0.0101786 55.8349 0.12683 55.3688L15.7518 2.24375Z" fill="#0E087A"/>
</svg>
