<svg width="32" height="32" viewBox="0 0 32 32" fill="none" xmlns="http://www.w3.org/2000/svg">
<g clip-path="url(#clip0_1388_248)">
<path d="M16.0001 0H15.9614C7.12543 0 -0.0385742 7.164 -0.0385742 16C-0.0385742 24.836 7.12543 32 15.9614 32H16.0001C24.8361 32 32.0001 24.836 32.0001 16C32.0001 7.164 24.8361 0 16.0001 0ZM16.0001 30.72H15.9614C7.83209 30.72 1.24143 24.1293 1.24143 16C1.24143 7.87067 7.83209 1.28 15.9614 1.28H16.0001C24.1294 1.28 30.7201 7.87067 30.7201 16C30.7201 24.1293 24.1294 30.72 16.0001 30.72Z" fill="#222222"/>
<path d="M21.1002 9.52267C19.7802 9.856 18.2522 10.072 16.6815 10.1227L16.6469 10.124V15.3627H21.8469C21.8167 13.3321 21.5532 11.3117 21.0615 9.34134L21.1002 9.52267ZM16.6389 2.65334V8.95334C18.0816 8.91067 19.5159 8.71535 20.9175 8.37067L20.7775 8.4C19.7695 5.21334 18.2002 3.12267 16.6389 2.65334ZM11.1855 8.392C12.4202 8.70134 13.8522 8.90401 15.3215 8.952L15.3549 8.95334V2.63867C13.7935 3.09201 12.2002 5.18534 11.1855 8.392ZM25.5842 6.56801C23.843 4.78842 21.6401 3.52971 19.2229 2.93334L19.1309 2.91467C20.4168 4.38225 21.3572 6.11955 21.8829 7.99867L21.9042 8.09067C23.2166 7.69515 24.4854 7.1671 25.6909 6.51467L25.5842 6.56801ZM23.0229 15.3627H29.4309C29.3007 12.4615 28.2273 9.68212 26.3735 7.44667L26.3909 7.46934C25.2042 8.13867 23.8269 8.73334 22.3842 9.18267L22.2309 9.22401C22.7015 11.0573 22.9882 13.168 23.0215 15.3413L23.0229 15.3627ZM10.1149 15.3627H15.3602V10.124C13.7945 10.0795 12.2382 9.86492 10.7189 9.484L10.8682 9.516C10.3912 11.4223 10.1384 13.3777 10.1149 15.3427V15.3627ZM21.8469 16.6387H16.6389V21.8653C18.2442 21.912 19.7762 22.128 21.2482 22.4973L21.1015 22.4667C21.5442 20.7267 21.8135 18.7227 21.8469 16.6613V16.6387ZM10.8695 22.4773C12.2029 22.1373 13.7442 21.9173 15.3295 21.8707L15.3615 21.8693V16.6427H10.1149C10.1455 18.728 10.4189 20.7347 10.9069 22.656L10.8695 22.4773ZM15.3629 29.3547V23.0387C13.8562 23.088 12.4229 23.2893 11.0429 23.6293L11.1855 23.6C12.2015 26.808 13.7935 28.9053 15.3629 29.3547ZM19.1309 29.0853C21.584 28.4931 23.8219 27.2251 25.5909 25.4253L25.5935 25.4227C24.4674 24.813 23.2839 24.316 22.0602 23.9387L21.9162 23.9C21.3898 25.8229 20.4333 27.601 19.1189 29.1L19.1309 29.0853ZM12.8229 2.93067C10.3905 3.52615 8.17229 4.78807 6.41752 6.57467L6.41486 6.57734C7.44819 7.14267 8.65219 7.65467 9.91086 8.04667L10.0535 8.08534C10.5798 6.17529 11.5306 4.4087 12.8349 2.91734L12.8215 2.93201L12.8229 2.93067ZM22.2309 22.7773C23.8295 23.264 25.2109 23.86 26.5082 24.5867L26.4002 24.5307C28.2393 22.309 29.3055 19.5491 29.4375 16.668L29.4389 16.6373H23.0309C22.992 18.7736 22.7098 20.8984 22.1895 22.9707L22.2309 22.7773ZM16.6389 23.0387V29.3453C18.2002 28.876 19.7695 26.7853 20.7775 23.592C19.4315 23.2635 18.0545 23.078 16.6695 23.0387H16.6389ZM9.73886 9.21467C8.26467 8.77133 6.84368 8.16726 5.50152 7.41334L5.60686 7.468C3.76771 9.68968 2.70157 12.4496 2.56952 15.3307L2.56819 15.3613H8.94419C8.97486 13.1653 9.26286 11.0507 9.77886 9.02667L9.73886 9.21467ZM8.93752 16.6387H2.56152C2.70419 19.66 3.82819 22.3933 5.61886 24.5547L5.60152 24.532C6.77886 23.8667 8.14819 23.2747 9.58019 22.8267L9.73219 22.7853C9.23554 20.7818 8.96938 18.728 8.93886 16.664L8.93752 16.6387ZM6.40819 25.4227C8.14041 27.1922 10.3288 28.4475 12.7309 29.0493L12.8229 29.0693C11.5408 27.6049 10.6011 25.8731 10.0722 24L10.0495 23.9067C8.75021 24.3055 7.49345 24.8316 6.29752 25.4773L6.40819 25.4227Z" fill="#222222"/>
</g>
<defs>
<clipPath id="clip0_1388_248">
<rect width="32" height="32" fill="white"/>
</clipPath>
</defs>
</svg>
